<svg width="24" height="24" viewBox="0 0 24 24" fill="none" xmlns="http://www.w3.org/2000/svg">
<path fill-rule="evenodd" clip-rule="evenodd" d="M12 2.40002C17.28 2.40002 21.6 6.72002 21.6 12C21.6 17.28 17.28 21.6 12 21.6C6.72002 21.6 2.40002 17.28 2.40002 12C2.40002 6.72002 6.72002 2.40002 12 2.40002ZM12 6.30002C11.503 6.30002 11.1 6.70297 11.1 7.20002V12C11.1 12.3162 11.266 12.6096 11.5371 12.7723L14.5371 14.5723C14.9633 14.8277 15.5166 14.689 15.7723 14.2629C16.0277 13.8367 15.889 13.2834 15.4629 13.0278L12.9 11.4891V7.20002C12.9 6.70297 12.4971 6.30002 12 6.30002Z" fill="white"/>
</svg>
